<?xml version="1.0" encoding="utf-8"?>
<!-- Generator: Adobe Illustrator 23.0.2, SVG Export Plug-In . SVG Version: 6.00 Build 0)  -->
<svg version="1.1" xmlns="http://www.w3.org/2000/svg" xmlns:xlink="http://www.w3.org/1999/xlink" x="0px" y="0px"
	 viewBox="0 0 800 800" style="enable-background:new 0 0 800 800;" xml:space="preserve">
<style type="text/css">
	.st0{fill:none;stroke:#000000;stroke-miterlimit:10;}
	.st1{fill:#FFFFFF;stroke:#000000;stroke-miterlimit:10;}
	.st2{fill:#E0E1E2;stroke:#000000;stroke-miterlimit:10;}
	.st3{fill:#333333;stroke:#000000;stroke-miterlimit:10;}
</style>
<g id="Layer_2">
	<g>
		<g>
			<path d="M-423,253.5c3.22,0,3.22-5,0-5C-426.22,248.5-426.22,253.5-423,253.5L-423,253.5z"/>
		</g>
	</g>
	<rect width="120" height="120"/>
	<rect x="1" y="240" width="120" height="120"/>
	<rect y="120" class="st0" width="120" height="120"/>
	<rect y="360" class="st0" width="120" height="120"/>
	<rect x="121" y="360" width="120" height="120"/>
	<rect x="121" y="120" width="120" height="120"/>
	<rect x="0" y="480" width="120" height="120"/>
	<polyline points="1,772 1,720 121,720 121,800 1,800 	"/>
	<rect x="0" y="600" class="st0" width="120" height="120"/>
	<rect x="0" y="600" class="st0" width="120" height="120"/>
	<rect x="0" y="600" class="st0" width="120" height="120"/>
	<rect x="0" y="600" class="st0" width="120" height="120"/>
	<rect x="0" y="600" class="st0" width="120" height="120"/>
	<rect x="0" y="600" class="st0" width="120" height="120"/>
	<rect x="0" y="600" class="st0" width="120" height="120"/>
	<rect x="0" y="600" class="st0" width="120" height="120"/>
	<rect x="1" y="600" class="st0" width="120" height="120"/>
	<rect x="121" class="st0" width="120" height="120"/>
	<rect x="121" y="480" class="st0" width="120" height="120"/>
	<rect x="121" y="240" class="st0" width="120" height="120"/>
	<rect x="121" y="720" class="st0" width="120" height="80"/>
	<rect x="121" y="600" width="120" height="120"/>
	<rect x="241.5" width="120" height="120"/>
	<rect x="242.5" y="240" width="120" height="120"/>
	<rect x="241.5" y="120" class="st0" width="120" height="120"/>
	<rect x="241.5" y="360" class="st0" width="120" height="120"/>
	<rect x="362.5" y="360" width="120" height="120"/>
	<rect x="362.5" y="120" width="120" height="120"/>
	<rect x="241.5" y="480" width="120" height="120"/>
	<rect x="242.5" y="720" width="120" height="80"/>
	<rect x="241.5" y="600" class="st0" width="120" height="120"/>
	<rect x="241.5" y="600" class="st0" width="120" height="120"/>
	<rect x="241.5" y="600" class="st0" width="120" height="120"/>
	<rect x="241.5" y="600" class="st0" width="120" height="120"/>
	<rect x="241.5" y="600" class="st0" width="120" height="120"/>
	<rect x="241.5" y="600" class="st0" width="120" height="120"/>
	<rect x="241.5" y="600" class="st0" width="120" height="120"/>
	<rect x="241.5" y="600" class="st0" width="120" height="120"/>
	<rect x="242.5" y="600" class="st0" width="120" height="120"/>
	<rect x="362.5" class="st0" width="120" height="120"/>
	<rect x="362.5" y="480" class="st0" width="120" height="120"/>
	<rect x="362.5" y="240" class="st0" width="120" height="120"/>
	<rect x="362.5" y="720" class="st0" width="120" height="80"/>
	<rect x="362.5" y="600" width="120" height="120"/>
	<rect x="483" y="0" width="120" height="120"/>
	<rect x="484" y="240" width="120" height="120"/>
	<rect x="483" y="120" class="st0" width="120" height="120"/>
	<rect x="483" y="360" class="st0" width="120" height="120"/>
	<rect x="604" y="360" width="120" height="120"/>
	<rect x="604" y="120" width="120" height="120"/>
	<rect x="483" y="480" width="120" height="120"/>
	<rect x="484" y="720" width="120" height="80"/>
	<rect x="483" y="600" class="st0" width="120" height="120"/>
	<rect x="483" y="600" class="st0" width="120" height="120"/>
	<rect x="483" y="600" class="st0" width="120" height="120"/>
	<rect x="483" y="600" class="st0" width="120" height="120"/>
	<rect x="483" y="600" class="st0" width="120" height="120"/>
	<rect x="483" y="600" class="st0" width="120" height="120"/>
	<rect x="483" y="600" class="st0" width="120" height="120"/>
	<rect x="483" y="600" class="st0" width="120" height="120"/>
	<rect x="484" y="600" class="st0" width="120" height="120"/>
	<rect x="604" y="0" class="st0" width="120" height="120"/>
	<rect x="604" y="480" class="st0" width="120" height="120"/>
	<rect x="604" y="240" class="st0" width="120" height="120"/>
	<rect x="604" y="720" class="st0" width="120" height="80"/>
	<rect x="604" y="600" width="120" height="120"/>
	<rect x="724" y="0" width="76" height="120"/>
	<rect x="725" y="240" width="75" height="120"/>
	<rect x="724" y="120" class="st0" width="76" height="120"/>
	<rect x="724" y="360" class="st0" width="76" height="120"/>
	<rect x="724" y="480" width="76" height="120"/>
	<rect x="725" y="720" width="75" height="80"/>
	<rect x="724" y="600" class="st0" width="76" height="120"/>
</g>
<g id="Layer_1">
	<path class="st1" d="M387,30"/>
	<path class="st1" d="M637.56,65.03c-16.68,3.9-34.98,2.83-51.56,1.97c-1.03-0.05-1.91-0.41-2.64-0.96
		c-16.17,2.6-32.48,4.38-49.05,5.19c-9.93,2.02-19.96,3.51-30.2,3.79c-9.95,0.28-19.95-0.08-29.95-0.52
		c-5.02,0.96-10.05,1.87-15.13,2.61c-8.53,1.23-16.98,1.4-25.43,1.19c-0.62,0.11-1.24,0.23-1.86,0.34
		c-11.77,1.99-23.71,2.49-35.69,2.26c-3.83,0.67-7.67,1.31-11.53,1.86c-7.87,1.12-15.8,1.89-23.76,1.56
		c-7.49-0.31-14.96-1.6-22.38-2.61c-6.86-0.93-13.72-1.92-20.59-2.94c-54.12-1.61-107.82-10.1-161.5-16.98
		C74.96,138.02,23.22,252.37,23.22,380.29C23.22,609.88,189.74,796,395.15,796s371.93-186.12,371.93-415.71
		C767.08,254.21,716.85,141.26,637.56,65.03z"/>
	<path class="st1" d="M578.83,59.18c-12.45-0.31-24.89-0.13-37.33,0.33c-0.14,0.02-0.27,0.04-0.41,0.06
		c-1.19,0.2-2.39,0.39-3.58,0.57c-1.74,0.27-3.49,0.53-5.23,0.78c-14.99,2.74-30.07,5.15-45.16,5.54c-2.83,0.07-5.7,0.09-8.58,0.07
		c-15.99,1.71-32.04,2.7-48.12,3.05c-2.4,0.62-4.76,1.35-7.1,2.23c-2.57,0.97-4.51-0.23-5.43-2.09
		c-14.09,0.02-28.18-0.41-42.24-1.26C322.43,68.54,269.13,64.18,216,60c-1.51-0.12-2.66-0.76-3.46-1.65
		C121.1,126.98,60.65,245.62,60.65,380.52c0,212.36,149.76,384.52,334.5,384.52s334.5-172.16,334.5-384.52
		C729.65,246.15,669.67,127.92,578.83,59.18z"/>
	<g>
		<path class="st1" d="M803.15,29c0,25.41-182.67,46-408,46C206.91,75,48.44,60.63,1.37,41.08"/>
	</g>
	<rect class="st1" width="803.15" height="39"/>
	<ellipse class="st2" cx="396.5" cy="408.95" rx="291.5" ry="328.05"/>
	<ellipse class="st3" cx="402.26" cy="367" rx="54.63" ry="46"/>
</g>
</svg>
